REM DIRINDEX 1\2\6,1\2\7,1\2\8,1\2\9,1\3\10,1\3\11,1\4\12,1\4\13,1\4\14,1\5\15,1\5\16,1\5\17
REM DIRNAME cjc020,folder01,folder02,folder03,folder04,folder05,folder06,folder07,folder08,folder09,folder10,folder11,folder12,folder13,folder14,folder15,folder16
TITLE ""
FILE "1900_2_sec18_1777_1800.mp3" MP3
  TRACK 01 AUDIO
    TITLE "0:"
    INDEX 01 00:00:00
  TRACK 02 AUDIO
    TITLE "13:cjc020_5713"
    INDEX 01 00:00:19
  TRACK 03 AUDIO
    TITLE "0:"
    INDEX 01 00:01:56
  TRACK 04 AUDIO
    TITLE "14:cjc020_5714"
    INDEX 01 00:01:58
  TRACK 05 AUDIO
    TITLE "0:"
    INDEX 01 00:03:10
  TRACK 06 AUDIO
    TITLE "13:cjc020_5715"
    INDEX 01 00:03:66
  TRACK 07 AUDIO
    TITLE "0:"
    INDEX 01 00:05:07
  TRACK 08 AUDIO
    TITLE "14:cjc020_5716"
    INDEX 01 00:05:12
  TRACK 09 AUDIO
    TITLE "0:"
    INDEX 01 00:07:64
  TRACK 10 AUDIO
    TITLE "13:cjc020_5717"
    INDEX 01 00:08:44
  TRACK 11 AUDIO
    TITLE "0:"
    INDEX 01 00:09:49
  TRACK 12 AUDIO
    TITLE "14:cjc020_5718"
    INDEX 01 00:09:53
  TRACK 13 AUDIO
    TITLE "0:"
    INDEX 01 00:11:74
  TRACK 14 AUDIO
    TITLE "13:cjc020_5719"
    INDEX 01 00:12:52
  TRACK 15 AUDIO
    TITLE "0:"
    INDEX 01 00:13:67
  TRACK 16 AUDIO
    TITLE "14:cjc020_5720"
    INDEX 01 00:13:71
  TRACK 17 AUDIO
    TITLE "0:"
    INDEX 01 00:16:34
  TRACK 18 AUDIO
    TITLE "13:cjc020_5721"
    INDEX 01 00:17:14
  TRACK 19 AUDIO
    TITLE "0:"
    INDEX 01 00:18:29
  TRACK 20 AUDIO
    TITLE "14:cjc020_5722"
    INDEX 01 00:18:31
  TRACK 21 AUDIO
    TITLE "0:"
    INDEX 01 00:22:03
  TRACK 22 AUDIO
    TITLE "13:cjc020_5723"
    INDEX 01 00:22:58
  TRACK 23 AUDIO
    TITLE "0:"
    INDEX 01 00:23:69
  TRACK 24 AUDIO
    TITLE "14:cjc020_5724"
    INDEX 01 00:23:71
  TRACK 25 AUDIO
    TITLE "0:"
    INDEX 01 00:27:00
  TRACK 26 AUDIO
    TITLE "13:cjc020_5725"
    INDEX 01 00:27:57
  TRACK 27 AUDIO
    TITLE "0:"
    INDEX 01 00:28:72
  TRACK 28 AUDIO
    TITLE "14:cjc020_5726"
    INDEX 01 00:28:74
  TRACK 29 AUDIO
    TITLE "0:"
    INDEX 01 00:31:35
  TRACK 30 AUDIO
    TITLE "13:cjc020_5727"
    INDEX 01 00:32:13
  TRACK 31 AUDIO
    TITLE "0:"
    INDEX 01 00:33:22
  TRACK 32 AUDIO
    TITLE "14:cjc020_5728"
    INDEX 01 00:33:24
  TRACK 33 AUDIO
    TITLE "0:"
    INDEX 01 00:36:07
  TRACK 34 AUDIO
    TITLE "13:cjc020_5729"
    INDEX 01 00:36:62
  TRACK 35 AUDIO
    TITLE "0:"
    INDEX 01 00:38:16
  TRACK 36 AUDIO
    TITLE "14:cjc020_5730"
    INDEX 01 00:38:20
  TRACK 37 AUDIO
    TITLE "0:"
    INDEX 01 00:39:51
  TRACK 38 AUDIO
    TITLE "13:cjc020_5731"
    INDEX 01 00:40:32
  TRACK 39 AUDIO
    TITLE "0:"
    INDEX 01 00:41:44
  TRACK 40 AUDIO
    TITLE "14:cjc020_5732"
    INDEX 01 00:41:45
  TRACK 41 AUDIO
    TITLE "0:"
    INDEX 01 00:43:11
  TRACK 42 AUDIO
    TITLE "13:cjc020_5733"
    INDEX 01 00:43:66
  TRACK 43 AUDIO
    TITLE "0:"
    INDEX 01 00:44:71
  TRACK 44 AUDIO
    TITLE "14:cjc020_5734"
    INDEX 01 00:44:73
  TRACK 45 AUDIO
    TITLE "0:"
    INDEX 01 00:47:28
  TRACK 46 AUDIO
    TITLE "13:cjc020_5735"
    INDEX 01 00:48:10
  TRACK 47 AUDIO
    TITLE "0:"
    INDEX 01 00:49:33
  TRACK 48 AUDIO
    TITLE "14:cjc020_5736"
    INDEX 01 00:49:35
  TRACK 49 AUDIO
    TITLE "0:"
    INDEX 01 00:53:19
  TRACK 50 AUDIO
    TITLE "13:cjc020_5737"
    INDEX 01 00:53:72
  TRACK 51 AUDIO
    TITLE "0:"
    INDEX 01 00:54:74
  TRACK 52 AUDIO
    TITLE "14:cjc020_5738"
    INDEX 01 00:55:01
  TRACK 53 AUDIO
    TITLE "0:"
    INDEX 01 00:56:10
  TRACK 54 AUDIO
    TITLE "13:cjc020_5739"
    INDEX 01 00:56:67
  TRACK 55 AUDIO
    TITLE "0:"
    INDEX 01 00:57:74
  TRACK 56 AUDIO
    TITLE "14:cjc020_5740"
    INDEX 01 00:58:01
  TRACK 57 AUDIO
    TITLE "0:"
    INDEX 01 01:00:70
  TRACK 58 AUDIO
    TITLE "13:cjc020_5741"
    INDEX 01 01:01:46
  TRACK 59 AUDIO
    TITLE "0:"
    INDEX 01 01:03:00
  TRACK 60 AUDIO
    TITLE "14:cjc020_5742"
    INDEX 01 01:03:04
  TRACK 61 AUDIO
    TITLE "0:"
    INDEX 01 01:05:48
  TRACK 62 AUDIO
    TITLE "13:cjc020_5743"
    INDEX 01 01:06:24
  TRACK 63 AUDIO
    TITLE "0:"
    INDEX 01 01:07:49
  TRACK 64 AUDIO
    TITLE "14:cjc020_5744"
    INDEX 01 01:07:51
  TRACK 65 AUDIO
    TITLE "0:"
    INDEX 01 01:10:22
  TRACK 66 AUDIO
    TITLE "13:cjc020_5745"
    INDEX 01 01:11:05
  TRACK 67 AUDIO
    TITLE "0:"
    INDEX 01 01:12:17
  TRACK 68 AUDIO
    TITLE "14:cjc020_5746"
    INDEX 01 01:12:21
  TRACK 69 AUDIO
    TITLE "0:"
    INDEX 01 01:14:59
  TRACK 70 AUDIO
    TITLE "13:cjc020_5747"
    INDEX 01 01:15:40
  TRACK 71 AUDIO
    TITLE "0:"
    INDEX 01 01:16:46
  TRACK 72 AUDIO
    TITLE "14:cjc020_5748"
    INDEX 01 01:16:50
  TRACK 73 AUDIO
    TITLE "0:"
    INDEX 01 01:20:36
  TRACK 74 AUDIO
    TITLE "13:cjc020_5749"
    INDEX 01 01:21:18
  TRACK 75 AUDIO
    TITLE "0:"
    INDEX 01 01:22:50
  TRACK 76 AUDIO
    TITLE "14:cjc020_5750"
    INDEX 01 01:22:54
  TRACK 77 AUDIO
    TITLE "0:"
    INDEX 01 01:24:16
  TRACK 78 AUDIO
    TITLE "13:cjc020_5751"
    INDEX 01 01:25:00
  TRACK 79 AUDIO
    TITLE "0:"
    INDEX 01 01:26:17
  TRACK 80 AUDIO
    TITLE "14:cjc020_5752"
    INDEX 01 01:26:21
  TRACK 81 AUDIO
    TITLE "0:"
    INDEX 01 01:27:42
  TRACK 82 AUDIO
    TITLE "13:cjc020_5753"
    INDEX 01 01:28:24
  TRACK 83 AUDIO
    TITLE "0:"
    INDEX 01 01:29:39
  TRACK 84 AUDIO
    TITLE "14:cjc020_5754"
    INDEX 01 01:29:43
  TRACK 85 AUDIO
    TITLE "0:"
    INDEX 01 01:30:62
  TRACK 86 AUDIO
    TITLE "13:cjc020_5755"
    INDEX 01 01:31:43
  TRACK 87 AUDIO
    TITLE "0:"
    INDEX 01 01:32:66
  TRACK 88 AUDIO
    TITLE "14:cjc020_5756"
    INDEX 01 01:32:68
  TRACK 89 AUDIO
    TITLE "0:"
    INDEX 01 01:35:59
  TRACK 90 AUDIO
    TITLE "13:cjc020_5757"
    INDEX 01 01:36:35
  TRACK 91 AUDIO
    TITLE "0:"
    INDEX 01 01:37:42
  TRACK 92 AUDIO
    TITLE "14:cjc020_5758"
    INDEX 01 01:37:44
  TRACK 93 AUDIO
    TITLE "0:"
    INDEX 01 01:40:36
  TRACK 94 AUDIO
    TITLE "13:cjc020_5759"
    INDEX 01 01:41:14
  TRACK 95 AUDIO
    TITLE "0:"
    INDEX 01 01:42:33
  TRACK 96 AUDIO
    TITLE "14:cjc020_5760"
    INDEX 01 01:42:35
  TRACK 97 AUDIO
    TITLE "0:"
    INDEX 01 01:44:66
